<?xml version="1.0" encoding="UTF-8" standalone="no"?>
<svg
  xmlns="http://www.w3.org/2000/svg"
  version="1.1"
  width="640"
  height="640"
  viewBox="0 0 640 640">
  <path
    d="M 288 20 L 288 92.6 L 225.15 56.301 L 217.15 70.1 L 288 111 L 304 120.3 L 304 20 L 288 20 z M 336 20 L 336 120.3 L 352 111 L 422.85 70.1 L 414.85 56.301 L 352 92.6 L 352 20 L 336 20 z M 201.15 97.9 L 193.15 111.7 L 256 148 L 193.15 184.3 L 201.15 198.1 L 272 157.2 L 288 148 L 272 138.8 L 201.15 97.9 z M 438.85 97.9 L 352 148 L 438.85 198.1 L 446.85 184.3 L 384 148 L 446.85 111.7 L 438.85 97.9 z M 304 175.7 L 288 185 L 270.36 195.1 L 217.15 225.9 L 225.15 239.7 L 288 203.4 L 288 276 L 304 276 L 304 175.7 z M 336 175.7 L 336 276 L 352 276 L 352 203.4 L 414.85 239.7 L 422.85 225.9 L 352 185 L 336 175.7 z M 96.199 364 L 96.199 436.6 L 33.35 400.3 L 25.35 414.1 L 96.199 455.1 L 112.2 464.3 L 112.2 364 L 96.199 364 z M 144.2 364 L 144.2 464.3 L 160.2 455 L 231.05 414.1 L 223.05 400.3 L 160.2 436.6 L 160.2 364 L 144.2 364 z M 479.8 364 L 479.8 436.6 L 416.95 400.3 L 408.95 414.1 L 479.8 455.1 L 495.8 464.3 L 495.8 364 L 479.8 364 z M 527.8 364 L 527.8 464.3 L 543.8 455 L 614.65 414.1 L 606.65 400.3 L 543.8 436.6 L 543.8 364 L 527.8 364 z M 9.3496 441.9 L 1.3496 455.7 L 64.199 492 L 1.3496 528.3 L 9.3496 542.1 L 80.199 501.2 L 96.199 492 L 80.199 482.8 L 9.3496 441.9 z M 247.05 441.9 L 160.2 492 L 247.05 542.1 L 255.05 528.3 L 192.2 492 L 255.05 455.7 L 247.05 441.9 z M 392.95 441.9 L 384.95 455.7 L 447.8 492 L 384.95 528.3 L 392.95 542.1 L 463.8 501.2 L 479.8 492 L 463.8 482.8 L 392.95 441.9 z M 630.65 441.9 L 543.8 492 L 630.65 542.1 L 638.65 528.3 L 575.8 492 L 638.65 455.7 L 630.65 441.9 z M 112.2 519.7 L 96.199 529 L 78.561 539.1 L 25.35 569.9 L 33.35 583.7 L 96.199 547.4 L 96.199 620 L 112.2 620 L 112.2 519.7 z M 144.2 519.7 L 144.2 620 L 160.2 620 L 160.2 547.4 L 223.05 583.7 L 231.05 569.9 L 160.2 529 L 144.2 519.7 z M 495.8 519.7 L 479.8 529 L 462.16 539.1 L 408.95 569.9 L 416.95 583.7 L 479.8 547.4 L 479.8 620 L 495.8 620 L 495.8 519.7 z M 527.8 519.7 L 527.8 620 L 543.8 620 L 543.8 547.4 L 606.65 583.7 L 614.65 569.9 L 543.8 529 L 527.8 519.7 z"
    style="fill:#cac5be"/>
</svg>
