<?xml version="1.0" encoding="UTF-8" standalone="no"?>
<svg
  xmlns="http://www.w3.org/2000/svg"
  version="1.1"
  width="768"
  height="1536"
  viewBox="0 0 768 1536">
  <path
    d="M352 640v72.58l-62.85-36.29-8 13.85L352 731.05l16 9.24V640h-16zm48 0v100.29l16-9.24 70.85-40.91-8-13.85L416 712.57V640h-16zm-134.85 77.86l-8 13.85L320 768l-62.85 36.3 8 13.8L336 777.2l16-9.2-16-9.2-70.85-40.94zm237.7 0L416 768l86.85 50.1 8-13.8L448 768l62.85-36.29-8-13.85zM400 795.7V896h16v-72.6l62.85 36.3 8-13.8L416 805l-16-9.3zm-32 0l-16 9.3-17.64 10.1-53.21 30.8 8 13.8L352 823.4V896h16V795.7z"
    style="fill:#cac5be"/>
</svg>
