<?xml version="1.0" encoding="UTF-8" standalone="no"?>
<svg
   xmlns="http://www.w3.org/2000/svg"
   width="768"
   height="768"
   version="1.1"
   viewBox="0 0 768 768">
  <g
    style="fill:#278dd2"
    transform="matrix(0.93969,-0.34202,0.34202,0.93969,-108.18,154.49)">
    <path
      d="m 288,256 0,256 16,0 0,-256 z m 32,0 0,256 16,0 0,-256 z m 112,0 0,96 -80,0 0,16 96,0 0,-112 z m 32,0 0,256 16,0 0,-256 z m -112,136 0,16 80,0 0,104 16,0 0,-120 z"/>
    <path
      d="m 417.29,44.283 -8.2,55.682 c -2.9,19.705 4.95,26.565 14.09,27.905 9.62,1.42 19.53,-3.31 22.61,-24.2 l 7.95,-54.02 -5.11,-0.752 -8.04,54.612 c -2.25,15.31 -8.3,20.97 -16.49,19.77 -7.24,-1.07 -12.12,-7.49 -9.74,-23.634 l 8.04,-54.611 -5.11,-0.752 z m -73.04,3.196 c -0.62,0.01 -1.25,0.05 -1.9,0.132 -7.03,0.856 -11.27,4.757 -13.15,7.162 l 2.36,3.461 c 1.3,-1.246 4.33,-5.121 10.4,-5.861 7.75,-0.943 12.39,4.416 13.61,14.422 2.03,16.677 -8.42,35.115 -15.67,49.055 l -4.7,9.03 0.38,3.1 34.06,-4.15 -0,0 -0.56,-4.64 -27.04,3.29 0,-0.24 4.49,-8.77 c 8.21,-15.985 16.06,-32.9 14.29,-47.433 -1.37,-11.279 -7.26,-18.713 -16.54,-18.558 z m -90.05,21.175 -4.81,1.867 29.27,75.399 27.18,-10.55 -1.6,-4.14 -22.38,8.69 -27.66,-71.266 z m 307.75,24 -45.87,66.616 4.05,2.79 19.33,-28.07 c 10.14,-14.73 15.17,-22.04 21.56,-32.8 l 0.2,0.14 c -3.87,11.76 -5.94,20.68 -8.08,30.14 l -10.68,45.97 4.25,2.93 45.88,-66.62 -4.06,-2.79 -20.28,29.45 c -7.62,11.07 -12.25,17.79 -20.27,30.92 l -0.2,-0.13 c 3.02,-9.88 5.65,-21.32 8.18,-31.97 l 10.24,-43.65 -4.25,-2.926 z m -361.89,4.272 -4.32,2.816 44.15,67.768 4.33,-2.82 -44.16,-67.764 z m 279.7,36.284 c -1.69,0.1 -3.18,1.33 -3.97,3.34 -1.05,2.68 -0.18,5.08 2.06,5.95 2.68,1.05 4.72,-0.21 5.77,-2.9 1.04,-2.68 0.44,-5.1 -2.13,-6.11 -0.59,-0.23 -1.17,-0.32 -1.73,-0.28 z m -340.06,13.03 -3.4,3.55 45.15,69.77 3.49,-3.64 -15.61,-23.95 13.88,-14.46 24.57,14.6 3.66,-3.81 -71.74,-42.06 z m 3.62,6.8 c 5.43,3.71 10.33,6.92 15.83,10.2 L 179.17,175.3 166.88,188.12 154,168.78 c -3.41,-5.11 -6.91,-10.13 -11.01,-15.39 l 0.33,-0.35 z m 493.46,1.91 -61.81,52.17 19.11,22.65 3.49,-2.94 -15.79,-18.71 27.24,-22.99 13.77,16.33 3.49,-2.94 -13.78,-16.33 24.12,-20.35 14.78,17.52 3.49,-2.95 -18.11,-21.46 z m -547.327,56.45 -2.367,4.58 32.094,16.58 -12.18,23.56 -32.086,-16.57 -2.367,4.58 71.853,37.12 2.37,-4.58 -35.71,-18.45 12.17,-23.57 35.71,18.46 2.37,-4.59 -71.857,-37.12 z m 592.897,6.65 -3.98,1.95 6.65,13.58 -68.63,33.65 2.27,4.64 68.64,-33.66 6.65,13.58 3.99,-1.96 -15.59,-31.78 z m 5.58,139.54 0,0.1 0,-0.1 -0,0 z m 0,0.1 -11.46,16.57 -19.44,-6.11 11.93,16.18 -11.96,16.16 19.45,-6.07 11.47,16.65 0,-20.39 20.16,-6.31 -20.15,-6.35 0,-20.33 z m -607.885,0.1 0.03,20.39 -20.146,6.35 20.166,6.3 0.03,20.39 11.459,-16.65 19.468,6.06 L 99.068,384.39 111,368.2 91.553,374.32 80.045,357.7 Z m 543.295,129.62 -2.38,4.58 35.67,18.53 -12.22,23.54 -35.68,-18.54 -2.37,4.58 71.76,37.29 2.38,-4.58 -32.05,-16.65 12.23,-23.53 32.05,16.65 2.38,-4.58 -71.77,-37.29 z m -474.28,8.25 -68.712,33.49 -6.623,-13.59 -3.993,1.94 15.508,31.82 3.992,-1.94 -6.625,-13.59 68.713,-33.49 -2.26,-4.64 z m 24.48,42.16 -3.49,2.93 15.74,18.74 -27.29,22.92 -13.74,-16.35 -3.49,2.93 13.74,16.36 -24.17,20.29 -14.74,-17.55 -3.49,2.93 18.05,21.51 61.94,-52.02 -19.06,-22.69 z m 412.61,11.2 -3.5,3.62 15.55,23.99 -13.91,14.43 -24.54,-14.66 -3.67,3.8 71.64,42.23 3.42,-3.54 -44.99,-69.87 z m 14.5,31.47 12.82,19.37 c 3.41,5.12 6.89,10.14 10.98,15.42 l -0.33,0.34 c -5.42,-3.72 -10.31,-6.94 -15.81,-10.23 l -19.99,-12.11 12.33,-12.79 z m -379.86,6.84 -46.03,66.51 4.05,2.8 20.35,-29.41 c 7.65,-11.05 12.29,-17.76 20.34,-30.87 l 0.2,0.14 c -3.04,9.87 -5.7,21.3 -8.25,31.95 l -10.34,43.62 4.24,2.94 46.03,-66.51 -4.05,-2.8 -19.39,28.03 c -10.18,14.7 -15.23,22 -21.64,32.74 l -0.2,-0.14 c 3.9,-11.75 5.98,-20.66 8.15,-30.11 l 10.78,-45.95 -4.24,-2.94 z m 306.79,13.6 -4.33,2.8 43.99,67.87 4.33,-2.8 -43.99,-67.87 z m -38.81,21.49 -27.21,10.48 1.59,4.15 22.4,-8.63 27.48,71.32 4.82,-1.85 -29.08,-75.47 z m -201.08,2.57 c -1.76,0 -3.11,1.25 -3.9,3.26 -1.05,2.68 -0.46,5.1 2.11,6.11 2.35,0.92 4.66,-0.36 5.71,-3.04 1.05,-2.68 0.19,-5.08 -2.04,-5.96 -0.67,-0.27 -1.3,-0.38 -1.88,-0.37 z m 52.91,14.9 c -8.39,0.22 -16.33,6.1 -19.07,24.38 l -8.08,54 5.1,0.76 8.18,-54.59 c 2.29,-15.31 8.35,-20.95 16.54,-19.73 7.24,1.09 12.1,7.52 9.68,23.66 l -8.17,54.59 5.11,0.76 8.33,-55.66 c 2.95,-19.7 -4.88,-26.57 -14.02,-27.94 -1.2,-0.18 -2.41,-0.26 -3.6,-0.23 z m 91.2,0.33 -34.07,4.07 0,0 0.55,4.65 27.05,-3.23 0,0.24 -4.52,8.75 c -8.24,15.97 -16.14,32.87 -14.4,47.4 1.44,12.04 8.03,19.71 18.4,18.47 7.03,-0.84 11.28,-4.73 13.17,-7.13 l -2.35,-3.46 c -1.3,1.24 -4.35,5.11 -10.42,5.83 -7.75,0.93 -12.38,-4.44 -13.57,-14.45 -1.99,-16.68 8.5,-35.1 15.78,-49.02 l 4.72,-9.02 -0.37,-3.1 z"/>
    <path
      d="M 384,160 C 260.34,160 160,260.34 160,384 160,507.66 260.34,608 384,608 507.66,608 608,507.66 608,384 608,260.34 507.66,160 384,160 Z m 0,8 c 119.34,0 216,96.66 216,216 0,119.34 -96.66,216 -216,216 -119.34,0 -216,-96.66 -216,-216 0,-119.34 96.66,-216 216,-216 z"/>
    <path
      d="M 384,0 C 171.97,0 0,171.97 0,384 0,596.03 171.97,768 384,768 596.03,768 768,596.03 768,384 768,171.97 596.03,0 384,0 Z m 0,8 C 591.71,8 760,176.29 760,384 760,591.71 591.71,760 384,760 176.29,760 8,591.71 8,384 8,176.29 176.29,8 384,8 Z"/>
  </g>
</svg>
