<?xml version="1.0" encoding="UTF-8" standalone="no"?>
<svg
  xmlns="http://www.w3.org/2000/svg"
  version="1.1"
  width="1024"
  height="1024"
  viewBox="0 0 1024 1024">
  <rect
    width="1056"
    height="1056"
    x="-16"
    y="-16"
    style="fill:#fcf9f0"/>
  <path
    d="m 255.99915,479.927 0,62.97971 16.91121,0 0,-25.07526 20.41009,0 0,25.07526 16.91122,0 0,-62.97971 -16.91122,0 0,23.32582 -20.41009,0 0,-23.32582 -16.91121,0 z m 79.30778,0 -18.07751,62.97971 17.49436,0 3.49887,-14.57864 16.32808,0 4.08202,14.57864 18.0775,0 -18.66065,-62.97971 -22.74267,0 z m 49.56736,0 0,62.97971 16.91122,0 0,-62.97971 -16.91122,0 z m 28.57413,0 0,62.97971 40.82018,0 0,-13.99549 -23.90896,0 0,-48.98422 -16.91122,0 z m 102.05045,0 0,34.40558 c 0,20.41009 9.33033,29.74042 26.82469,29.74042 17.49437,0 26.82469,-9.91347 26.82469,-29.15727 l 0,-34.98873 -16.91121,0 0,35.57187 c 0,10.49662 -2.91573,15.16178 -9.91348,15.16178 -6.4146,0 -9.91347,-5.2483 -9.91347,-15.16178 l 0,-35.57187 -16.91122,0 z m 89.8044,0 0,62.97971 15.16178,0 0,-15.16178 c 0,-10.49662 0,-19.82695 -0.58314,-28.57413 l 0.58314,0 c 2.91573,7.58089 6.99775,16.32807 10.49662,22.74267 l 10.49662,20.99324 18.07751,0 0,-62.97971 -15.74493,0 0,15.16178 c 0,9.33033 0.58315,18.07751 1.74944,26.24155 l -0.58315,0 c -2.91572,-7.58089 -6.4146,-15.74493 -9.91347,-22.15953 l -9.91347,-19.2438 -19.82695,0 z m 65.89544,0 0,62.97971 41.98647,0 0,-13.99549 -25.07525,0 0,-11.66291 22.15952,0 0,-13.41235 -22.15952,0 0,-9.91347 23.90896,0 0,-13.99549 -40.82018,0 z m 47.81793,0 0,13.99549 15.74492,0 0,48.98422 16.91122,0 0,-48.98422 16.32807,0 0,-13.99549 -48.98421,0 z m -237.3402,1.16629 c -8.16404,0 -16.32808,2.91573 -20.99324,6.4146 l 4.66516,12.24606 c 3.49888,-2.33259 8.16404,-5.24831 13.41235,-5.24831 5.83145,0 8.74718,3.49887 8.74718,7.58089 0,6.4146 -6.4146,12.8292 -18.66065,23.32582 l -8.16404,7.58089 0,9.91347 44.9022,0 0,-13.99549 -21.57638,0 6.4146,-4.66517 c 6.99774,-5.83145 13.99549,-13.99549 13.99549,-23.32581 0,-12.24606 -8.74718,-19.82695 -22.74267,-19.82695 z m -135.87289,11.07976 0,0 c 1.16629,3.49888 2.33258,8.74719 3.49887,12.24606 l 2.91573,11.66291 -11.66291,0 2.91572,-11.66291 c 0.58315,-3.49887 1.74944,-8.74718 2.33259,-12.24606 z m 241.42221,32.073 c -5.83145,0 -9.33032,4.08202 -9.33032,9.91348 0,5.83145 3.49887,9.91347 9.33032,9.91347 5.83146,0 9.91348,-4.08202 9.91348,-9.91347 -0.58315,-5.83146 -4.08202,-9.91348 -9.91348,-9.91348 z"
    style="fill:#625b56"/>
</svg>
