<?xml version="1.0" encoding="UTF-8" standalone="no"?>
<svg
  xmlns="http://www.w3.org/2000/svg"
  version="1.1"
  width="1024"
  height="1024"
  viewBox="0 0 1024 1024">
  <rect
    width="1056"
    height="1056"
    x="-16"
    y="-16"
    style="fill:#75bae7"/>
  <g
    style="fill:#fcf9f0;">
    <path
      d="m 378.01,424.55 87.56,240.56 15.03,-5.47 -87.55,-240.56 z m 30.07,-10.94 87.56,240.56 15.03,-5.47 -87.55,-240.56 z m 105.25,-38.31 32.83,90.21 -75.17,27.36 5.47,15.04 90.21,-32.83 -38.31,-105.25 z m 30.07,-10.94 87.55,240.56 15.04,-5.47 -87.56,-240.56 z m -58.73,166.1 5.47,15.04 75.17,-27.36 35.57,97.72 15.04,-5.47 -41.04,-112.76 z"/>
    <path
       d="m 427.09,181.38 11.34,55.13 c 4.02,19.51 13.74,23.27 22.79,21.41 9.52,-1.96 17.22,-9.79 12.97,-30.48 l -11.01,-53.48 -5.06,1.04 11.12,54.07 c 3.13,15.16 -0.62,22.54 -8.73,24.22 -7.17,1.47 -13.95,-2.89 -17.23,-18.88 l -11.13,-54.07 -5.06,1.04 z m -67.54,27.99 c -0.58,0.21 -1.14,0.52 -1.74,0.77 -6.31,3.21 -8.96,8.33 -9.91,11.23 l 3.4,2.44 c 0.8,-1.61 2.32,-6.29 7.77,-9.06 6.96,-3.54 13.16,-0.1 17.73,8.9 7.6,14.97 4.09,35.88 2.05,51.45 l -1.33,10.1 1.42,2.78 30.58,-15.55 0,0 -2.11,-4.17 -24.28,12.34 -0.1,-0.22 1.22,-9.78 c 2.25,-17.82 3.84,-36.41 -2.79,-49.46 -5.15,-10.13 -13.23,-15.1 -21.89,-11.78 z m -77.38,50.69 -3.88,3.4 53.29,60.85 21.94,-19.21 -2.92,-3.35 -18.06,15.82 -50.37,-57.51 z m 297.4,-82.7 -20.32,78.29 4.76,1.24 8.57,-32.99 c 4.49,-17.31 6.71,-25.9 9.04,-38.2 l 0.23,0.1 c 0.39,12.38 1.49,21.47 2.72,31.09 l 5.69,46.85 4.99,1.3 20.33,-78.29 -4.77,-1.24 -8.98,34.61 c -3.38,13.01 -5.43,20.91 -8.48,35.99 l -0.23,-0.1 c -0.54,-10.32 -1.98,-21.97 -3.25,-32.84 l -5.3,-44.52 -5,-1.3 z m -338.6,127.79 -3.1,4.12 64.67,48.58 3.1,-4.13 -64.67,-48.57 z m 275.24,-61.57 c -1.55,0.67 -2.53,2.34 -2.59,4.5 -0.1,2.88 1.57,4.83 3.97,4.89 2.88,0.1 4.37,-1.82 4.43,-4.7 0.1,-2.88 -1.33,-4.95 -4.09,-5.02 -0.63,-0 -1.21,0.1 -1.72,0.33 z m -315.1,128.55 -1.98,4.5 66.29,50.12 2.04,-4.61 -22.86,-17.17 8.1,-18.33 28.08,5.31 2.13,-4.83 -81.8,-14.99 z m 5.73,5.16 c 6.37,1.63 12.08,2.97 18.37,4.17 l 22.93,4.48 -7.16,16.25 -18.72,-13.77 c -4.95,-3.63 -9.96,-7.15 -15.61,-10.69 l 0.19,-0.44 z m 464.36,-166.98 -40.24,70.16 25.7,14.75 2.27,-3.96 -21.23,-12.18 17.73,-30.92 18.53,10.64 2.27,-3.96 -18.53,-10.63 15.7,-27.37 19.88,11.41 2.27,-3.97 -24.35,-13.97 z m -495.02,240.24 -0.65,5.11 35.83,4.61 -3.39,26.3 -35.82,-4.59 -0.66,5.11 80.22,10.3 0.66,-5.11 -39.87,-5.12 3.38,-26.31 39.87,5.13 0.65,-5.13 -80.22,-10.3 z m 559.42,-196.53 -3.07,3.19 10.89,10.49 -52.98,55.09 3.72,3.58 52.99,-55.1 10.89,10.48 3.08,-3.2 -25.52,-24.53 z m 52.97,129.21 0,0.1 -0,-0.1 0,0 z m 0,0.1 -5.1,19.49 -20.36,0.9 16.75,11.13 -5.71,19.27 16.2,-12.35 16.47,11.72 -6.97,-19.16 16.78,-12.82 -21.1,0.92 -6.96,-19.1 z m -571.18,208 6.97,19.16 -16.76,12.86 21.11,-0.98 6.97,19.16 5.06,-19.56 20.37,-0.97 -16.81,-11.16 5.67,-19.3 -16.18,12.41 -16.49,-11.69 z m 554.85,-64.02 -0.67,5.12 39.86,5.21 -3.43,26.3 -39.87,-5.21 -0.66,5.11 80.19,10.5 0.67,-5.12 -35.82,-4.68 3.45,-26.3 35.81,4.69 0.67,-5.12 -80.2,-10.5 z m -442.85,169.97 -53.11,54.97 -10.87,-10.51 -3.1,3.2 25.46,24.59 3.09,-3.19 -10.87,-10.5 53.11,-54.97 -3.71,-3.59 z m 37.42,31.25 -2.28,3.94 21.2,12.23 -17.8,30.87 -18.5,-10.66 -2.28,3.94 18.51,10.68 -15.78,27.33 -19.85,-11.45 -2.28,3.95 24.32,14.04 40.41,-70.07 -25.67,-14.8 z m 391.56,-130.6 -2.05,4.6 22.82,17.22 -8.14,18.32 -28.07,-5.38 -2.15,4.82 81.76,15.18 2,-4.49 -66.17,-50.27 z m 24.39,24.61 18.67,13.82 c 4.96,3.64 9.94,7.17 15.59,10.73 l -0.19,0.44 c -6.37,-1.65 -12.06,-3 -18.36,-4.21 l -22.92,-4.54 7.21,-16.24 z m -354.61,136.35 -20.51,78.24 4.76,1.25 9.07,-34.6 c 3.41,-13 5.47,-20.89 8.55,-35.96 l 0.24,0.1 c 0.52,10.31 1.93,21.96 3.17,32.84 l 5.21,44.53 4.99,1.31 20.5,-78.24 -4.76,-1.25 -8.64,32.98 c -4.53,17.29 -6.78,25.88 -9.13,38.16 l -0.24,-0.1 c -0.35,-12.38 -1.45,-21.46 -2.64,-31.08 l -5.58,-46.87 -4.99,-1.31 z m 292.94,-92.15 -3.12,4.11 64.55,48.73 3.12,-4.11 -64.55,-48.73 z m -29.12,33.47 -21.99,19.15 2.91,3.36 18.1,-15.77 50.22,57.62 3.89,-3.39 L 692,700.21 Z M 503.92,771.4 c -1.65,0.6 -2.49,2.23 -2.55,4.39 -0.1,2.88 1.31,4.95 4.07,5.02 2.53,0.1 4.26,-1.93 4.33,-4.81 0.1,-2.87 -1.56,-4.83 -3.96,-4.9 -0.72,-0 -1.35,0.1 -1.89,0.3 z m 54.82,-4.1 c -7.81,3.08 -13.26,11.32 -9.58,29.43 l 10.87,53.51 5.05,-1.03 -10.98,-54.1 c -3.08,-15.17 0.68,-22.54 8.79,-24.19 7.18,-1.45 13.95,2.93 17.19,18.92 l 11,54.09 5.06,-1.03 -11.21,-55.15 c -3.97,-19.52 -13.67,-23.3 -22.73,-21.46 -1.19,0.24 -2.36,0.58 -3.46,1.01 z m 85.81,-30.88 -30.62,15.48 0,0 2.1,4.18 24.32,-12.29 0.1,0.23 -1.26,9.77 c -2.28,17.82 -3.92,36.4 2.69,49.46 5.47,10.82 14.28,15.78 23.6,11.06 6.32,-3.19 8.98,-8.3 9.94,-11.2 l -3.39,-2.45 c -0.8,1.61 -2.34,6.29 -7.8,9.04 -6.96,3.53 -13.15,0.1 -17.69,-8.93 -7.58,-15 -4.02,-35.89 -1.94,-51.46 l 1.35,-10.09 -1.41,-2.79 z"/>
    <path
      d="m 435.39,301.51 c -116.2,42.29 -176.18,170.9 -133.88,287.1 42.29,116.2 170.9,176.18 287.1,133.88 C 704.81,680.2 764.79,551.59 722.49,435.39 680.2,319.19 551.59,259.21 435.39,301.51 Z m 2.73,7.52 C 550.27,268.21 674.16,325.98 714.97,438.12 755.79,550.27 698.02,674.16 585.88,714.97 473.73,755.79 349.84,698.02 309.03,585.88 268.21,473.73 325.98,349.84 438.12,309.03 Z"/>
    <path
      d="M 380.66,151.16 C 181.42,223.68 78.64,444.09 151.16,643.34 223.68,842.58 444.09,945.36 643.34,872.84 842.58,800.32 945.36,579.91 872.84,380.66 800.32,181.42 579.91,78.64 380.66,151.16 Z m 2.74,7.52 C 578.58,87.635 794.28,188.22 865.32,383.4 936.37,578.58 835.78,794.28 640.6,865.32 445.42,936.37 229.72,835.78 158.68,640.6 87.635,445.42 188.22,229.72 383.4,158.68 Z"/>
  </g>
</svg>
