<?xml version="1.0" encoding="UTF-8" standalone="no"?>
<svg
  xmlns="http://www.w3.org/2000/svg"
  version="1.1"
  width="1024"
  height="1024"
  viewBox="0 0 1024 1024">
  <rect
    width="1056"
    height="1056"
    x="-16"
    y="-16"
    style="fill:#fcf9f0"/>
  <path
    d="m 73,457 0,108 29,0 0,-43 35,0 0,43 29,0 0,-108 -29,0 0,40 -35,0 0,-40 -29,0 z m 136,0 -31,108 30,0 6,-25 28,0 7,25 31,0 -32,-108 -39,0 z m 85,0 0,108 29,0 0,-108 -29,0 z m 49,0 0,108 70,0 0,-24 -41,0 0,-84 -29,0 z m 175,0 0,59 c 0,35 16,51 46,51 30,0 46,-17 46,-50 l 0,-60 -29,0 0,61 c 0,18 -5,26 -17,26 -11,0 -17,-9 -17,-26 l 0,-61 -29,0 z m 154,0 0,108 26,0 0,-26 c 0,-18 0,-34 -1,-49 l 1,0 c 5,13 12,28 18,39 l 18,36 31,0 0,-108 -27,0 0,26 c 0,16 1,31 3,45 l -1,0 c -5,-13 -11,-27 -17,-38 l -17,-33 -34,0 z m 113,0 0,108 72,0 0,-24 -43,0 0,-20 38,0 0,-23 -38,0 0,-17 41,0 0,-24 -70,0 z m 82,0 0,24 27,0 0,84 29,0 0,-84 28,0 0,-24 -84,0 z m -407,2 c -14,0 -28,5 -36,11 l 8,21 c 6,-4 14,-9 23,-9 10,0 15,6 15,13 0,11 -11,22 -32,40 l -14,13 0,17 77,0 0,-24 -37,0 11,-8 c 12,-10 24,-24 24,-40 0,-21 -15,-34 -39,-34 z m -233,19 0,0 c 2,6 4,15 6,21 l 5,20 -20,0 5,-20 c 1,-6 3,-15 4,-21 z m 414,55 c -10,0 -16,7 -16,17 0,10 6,17 16,17 10,0 17,-7 17,-17 -1,-10 -7,-17 -17,-17 z"
    style="fill:#534b47"/>
</svg>
