<?xml version="1.0" encoding="UTF-8" standalone="no"?>
<svg
  xmlns="http://www.w3.org/2000/svg"
  version="1.1"
  width="512"
  height="512"
  viewBox="0 0 512 512">
  <rect
    x="-16"
    y="-16"
    width="544"
    height="544"
    style="fill:#5bacd0"/>
  <path
    d="m 160,136 0,240 c 0,0 0,8 8,8 8,0 8,-8 8,-8 l 0,-240 c 0,0 0,-8 -8,-8 -8,0 -8,8 -8,8 z m 32,0 0,240 c 0,0 0,8 8,8 8,0 8,-8 8,-8 l 0,-240 c 0,0 0,-8 -8,-8 -8,0 -8,8 -8,8 z m 112,0 0,88 -72,0 c 0,0 -8,0 -8,8 0,8 8,8 8,8 l 80,0 c 8,0 8,-8 8,-8 l 0,-96 c 0,0 0,-8 -8,-8 -8,0 -8,8 -8,8 z m 32,0 0,240 c 0,0 0,8 8,8 8,0 8,-8 8,-8 l 0,-240 c 0,0 0,-8 -8,-8 -8,0 -8,8 -8,8 z M 224,264 c 0,8 8,8 8,8 l 72,0 0,104 c 0,0 0,8 8,8 8,0 8,-8 8,-8 l 0,-112 c 0,0 0,-8 -8,-8 L 232,256 c 0,0 -8,0 -8,8 z"
    style="fill:#fcf9f0"/>
</svg>
