<?xml version="1.0" encoding="UTF-8" standalone="no"?>
<svg
  xmlns="http://www.w3.org/2000/svg"
  version="1.1"
  width="512.002"
  height="65.312"
  viewBox="0 0 512.002 65.312">
  <path
    d="m 0,1.166 0,62.98 16.911,0 0,-25.075 20.41,0 0,25.075 16.911,0 0,-62.98 -16.911,0 0,23.326 -20.41,0 0,-23.326 z m 79.308,0 -18.078,62.98 17.494,0 3.499,-14.579 16.328,0 4.082,14.579 18.078,0 L 102.05,1.166 Z m 49.567,0 0,62.98 16.911,0 0,-62.98 z m 28.574,7.4e-6 0,62.98 40.82,2.94e-4 0,-13.996 -23.909,0 0,-48.984 z m 102.05,-7.4e-6 0,34.406 c 0,20.41 9.33,29.74 26.825,29.74 17.494,0 26.825,-9.913 26.825,-29.157 l 0,-34.989 -16.911,0 0,35.572 c 0,10.497 -2.916,15.162 -9.913,15.162 -6.415,0 -9.913,-5.248 -9.913,-15.162 l 0,-35.572 z m 89.804,0 0,62.98 15.162,0 0,-15.162 c 0,-10.497 0,-19.827 -0.583,-28.574 l 0.583,0 c 2.916,7.581 6.998,16.328 10.497,22.743 l 10.497,20.993 18.078,0 0,-62.98 -15.745,0 0,15.162 c 0,9.33 0.583,18.078 1.749,26.242 l -0.583,0 C 386.042,34.988 382.543,26.824 379.045,20.41 L 369.131,1.166 Z m 65.895,0 0,62.98 41.986,0 0,-13.995 -25.075,0 0,-11.663 22.16,0 0,-13.412 -22.16,0 0,-9.913 23.909,0 0,-13.995 z m 47.818,0 0,13.995 15.745,0 0,48.984 16.911,0 0,-48.984 16.328,0 0,-13.995 z m -237.34,1.166 c -8.164,0 -16.328,2.916 -20.993,6.415 l 4.665,12.246 c 3.499,-2.333 8.164,-5.248 13.412,-5.248 5.831,0 8.747,3.499 8.747,7.581 0,6.415 -6.415,12.829 -18.661,23.326 l -8.164,7.581 0,9.913 44.902,0 0,-13.995 -21.576,0 6.415,-4.665 c 6.998,-5.831 13.995,-13.995 13.995,-23.326 0,-12.246 -8.747,-19.827 -22.743,-19.827 z M 89.804,13.412 l 0,0 c 1.166,3.499 2.333,8.747 3.499,12.246 l 2.916,11.663 -11.663,0 2.916,-11.663 c 0.583,-3.499 1.749,-8.747 2.333,-12.246 z m 241.422,32.073 c -5.831,0 -9.33,4.082 -9.33,9.913 0,5.831 3.499,9.913 9.33,9.913 5.831,0 9.913,-4.082 9.913,-9.913 -0.583,-5.831 -4.082,-9.913 -9.913,-9.913 z"
    style="fill:#625b56"/>
</svg>
