<?xml version="1.0" encoding="UTF-8" standalone="no"?>
<svg
  xmlns="http://www.w3.org/2000/svg"
  version="1.1"
  width="512"
  height="512"
  viewBox="0 0 512 512">
  <path
    d="m 362.51855,374.15791 c -1.05967,27.73793 29.27303,50.06237 55.45048,40.81917 26.60869,-7.22677 39.00452,-42.43618 22.7315,-64.71587 -14.52992,-23.37454 -51.71972,-25.17017 -68.42204,-3.29033 -6.28657,7.56634 -9.79946,17.34918 -9.75994,27.18703 z m 3.82089,-279.221995 c 25.94571,0 51.89142,0 77.83713,0 0,70.863275 0,141.726545 0,212.589815 -25.94571,0 -51.89142,0 -77.83713,0 0,-70.86327 0,-141.72654 0,-212.589815 z M 247.94604,237.95879 c 28.79935,-2.35263 51.60828,-28.05556 53.17917,-56.46227 3.65957,-27.78219 -5.13046,-60.60366 -31.92713,-73.97088 C 235.65479,90.577108 197.12942,96.108593 160.84501,95.105615 128.56334,95.105874 96.281671,95.102728 64,95.101385 c 0,107.320905 0,214.641805 0,321.962705 49.15055,-0.27706 98.32501,0.59102 147.4586,-0.5085 37.252,-1.84602 79.26566,-14.91025 97.46492,-50.29403 18.81368,-37.00632 12.95234,-90.0269 -24.07552,-113.60473 -11.139,-7.35392 -23.90407,-11.93262 -36.90196,-14.69804 z M 146.02576,155.74514 c 17.91238,0.90084 36.4767,-2.51808 53.72157,3.5201 26.226,7.99325 24.85263,53.48662 -2.88381,57.92077 -16.80576,2.46018 -33.89117,0.98371 -50.83353,1.38735 -0.001,-20.94272 -0.002,-41.8856 -0.004,-62.82822 z m 42.40303,192.86456 c -14.13505,0 -28.27009,0 -42.40514,0 -2.8e-4,-23.55686 -5.7e-4,-47.11372 -8.5e-4,-70.67058 21.38324,0.67869 43.04555,-1.72867 64.18176,2.10276 22.72516,4.50132 27.11349,33.66879 18.2141,51.51759 -7.66689,14.16398 -25.36469,17.09615 -39.98987,17.05023 z"
    style="fill:#fff"/>
</svg>
