<?xml version="1.0" encoding="UTF-8" standalone="no"?>
<svg
  xmlns="http://www.w3.org/2000/svg"
  version="1.1"
  width="2560"
  height="1440"
  viewBox="0 0 2560 1440">
  <rect
    width="2688"
    height="1568"
    x="-64"
    y="-64"
    style="fill:#17222c"/>
  <path
    d="m 1407.8691,939.9043 c -31.296,0 -44.7363,33.79149 -44.7363,65.8555 0,32.064 10.3678,66.625 43.0078,66.625 26.112,0 43.7754,-20.1611 43.7754,-69.1211 0,-24.57601 -6.9109,-63.3594 -42.0469,-63.3594 z m 549.377,0.95898 c -10.56,0 -21.5026,0.9601 -30.1426,2.4961 l 0,127.48832 29.5684,0 0,-49.5352 2.8789,0 c 6.528,0 9.9843,3.6478 11.9043,19.0078 1.728,13.632 4.7999,27.0714 6.3359,30.5274 l 31.1035,0 c -2.496,-4.992 -6.3346,-23.2317 -8.6386,-36.0957 -2.304,-12.672 -6.5286,-20.3515 -14.9766,-24.1915 l 0,-0.3847 c 13.248,-6.144 19.584,-19.19911 19.584,-31.87111 0,-11.52 -2.304,-20.16044 -10.752,-27.64844 -9.024,-8.064 -22.6572,-9.79297 -36.8652,-9.79297 z m 285.5234,0 c -10.176,0 -20.736,0.9601 -28.416,2.4961 l 0,127.48832 29.5684,0 0,-46.0801 4.414,0 c 9.984,0 23.4251,-3.4556 31.8731,-11.5196 7.488,-7.488 12.2871,-18.24075 12.2871,-33.21675 0,-10.752 -3.4549,-21.88819 -11.7109,-28.99219 -9.216,-8.256 -21.6957,-10.17578 -38.0157,-10.17578 z m -976.041,0.57617 0,129.40825 29.7598,0 0,-51.4551 21.8867,0 0,51.4551 29.7617,0 0,-129.40825 -29.7617,0 0,50.30469 -21.8867,0 0,-50.30469 -29.7598,0 z m 190.4746,0 20.9297,129.40825 29.5664,0 6.9121,-33.4082 c 2.496,-11.904 4.6095,-26.4951 7.1055,-42.62309 l 0.3828,0 c 1.728,16.51199 3.457,31.29509 5.377,42.62309 l 5.5664,33.4082 31.1054,0 21.6954,-129.40825 -28.9922,0 -4.4161,46.84766 c -1.344,14.97599 -2.6872,28.80169 -4.0312,44.92969 l -0.3848,0 c -1.536,-16.512 -3.4563,-30.7217 -5.5683,-44.92969 l -7.1035,-46.84766 -23.8086,0 -8.0625,46.84766 c -2.496,14.97599 -5.1855,29.18569 -7.1055,44.92969 l -0.3828,0 c -1.536,-15.744 -2.3045,-30.7217 -3.6485,-44.92969 l -4.2246,-46.84766 -30.9121,0 z m 172.1504,0 0,129.40825 29.7598,0 0,-129.40825 -29.7598,0 z m 87.1074,0 -9.9843,129.40825 25.1523,0 2.1113,-40.7032 c 0.576,-10.368 1.5373,-25.9207 2.1133,-39.5527 l 0.3828,0 c 1.728,13.632 4.9927,29.7608 6.7207,37.6328 l 8.8321,39.9356 21.5039,0 9.2168,-39.9356 c 1.728,-7.872 5.1829,-24.0008 7.2949,-37.6328 l 0.3848,0 c -0.192,13.632 0.5763,29.1847 1.1523,39.5527 l 2.1113,40.7032 26.3047,0 -8.0644,-129.40825 -30.9122,0 -8.2558,41.47266 c -3.072,15.936 -5.9517,31.48729 -7.6797,45.69529 l -0.3848,0 c -2.112,-14.592 -5.3766,-29.56729 -8.6406,-45.69529 l -8.2558,-41.47266 -31.1036,0 z m 137.5371,0 -27.455,129.40825 28.8008,0 4.416,-25.5352 20.9277,0 4.2227,25.5352 28.8007,0 -23.6152,-129.40825 -36.0977,0 z m 168.3555,0 0,129.40825 29.5684,0 0,-39.9356 5.1836,-9.793 15.5507,49.7286 32.4493,0 -28.0332,-72.57622 27.8398,-56.83203 -32.6387,0 -14.2089,39.55274 c -2.112,5.952 -3.8404,11.71129 -5.5684,17.27929 l -0.5742,0 0,-56.83203 -29.5684,0 z m 91.6641,0 0,77.18355 c 0,32.448 9.5995,53.7618 39.9355,53.7618 27.456,0 39.5528,-20.161 39.5528,-53.377 l 0,-77.56835 -29.7598,0 0,82.94535 c 0,18.24 -4.4164,22.08 -9.9844,22.08 -5.376,0 -9.9844,-4.992 -9.9844,-22.08 l 0,-82.94535 -29.7597,0 z m -151.9707,22.46485 c 9.216,0.384 12.8633,7.48848 12.8633,16.89648 0,9.408 -4.7985,17.66406 -14.3985,17.66406 l -3.8398,0 0,-33.79296 c 1.152,-0.57601 3.455,-0.76758 5.375,-0.76758 z m 287.25,0.76758 c 9.6,0 13.8242,7.68082 13.8242,18.04882 0,9.408 -3.8401,18.2402 -15.7441,18.2402 -1.152,0 -2.3031,0 -3.4551,-0.1933 l 0,-35.13479 c 1.344,-0.576 3.455,-0.96093 5.375,-0.96093 z m -842.3887,0.96093 c 9.024,0 12.0977,16.89599 12.0977,39.16799 0,26.496 -3.8403,41.8554 -11.9043,41.8554 -7.488,0 -13.0567,-9.9837 -13.0567,-40.5117 0,-28.41595 5.5673,-40.51169 12.8633,-40.51169 z m 463.9863,2.87891 0.3848,0 c 1.152,8.064 2.8798,22.08095 3.8398,29.37695 l 3.2637,24.57613 -15.7441,0 3.8398,-24.57613 c 1.152,-6.912 3.072,-21.31295 4.416,-29.37695 z M 1112.752,1180.2871 c -29.952,0 -43.7754,18.4322 -43.7754,39.7441 0,9.6 3.4567,23.8091 24.3847,36.2891 11.328,6.72 16.7032,10.3677 16.7032,18.4317 0,6.528 -4.991,11.5195 -16.127,11.5195 -7.488,0 -16.8968,-1.9202 -22.4648,-4.9922 l -3.8399,25.7285 c 4.608,2.496 14.9753,4.9922 26.1113,4.9922 27.264,0 45.5039,-16.1277 45.5039,-40.5117 0,-13.248 -5.9506,-26.8813 -23.8066,-36.8653 -14.592,-8.256 -17.2812,-11.9027 -17.2812,-17.4707 0,-5.952 4.8011,-11.1367 14.7851,-11.1367 7.488,0 13.0565,2.112 16.8965,4.416 l 4.2227,-25.5351 c -4.032,-2.304 -12.4805,-4.6094 -21.3125,-4.6094 z m 661.5,0 c -29.952,0 -43.7754,18.4322 -43.7754,39.7441 0,9.6 3.4567,23.8091 24.3847,36.2891 11.328,6.72 16.7032,10.3677 16.7032,18.4317 0,6.528 -4.991,11.5195 -16.127,11.5195 -7.488,0 -16.8968,-1.9202 -22.4648,-4.9922 l -3.8399,25.7285 c 4.608,2.496 14.9753,4.9922 26.1113,4.9922 27.264,0 45.5039,-16.1277 45.5039,-40.5117 0,-13.248 -5.9506,-26.8813 -23.8066,-36.8653 -14.592,-8.256 -17.2812,-11.9027 -17.2812,-17.4707 0,-5.952 4.8011,-11.1367 14.7851,-11.1367 7.488,0 13.0565,2.112 16.8965,4.416 l 4.2227,-25.5351 c -4.032,-2.304 -12.4805,-4.6094 -21.3125,-4.6094 z m 418.875,0 c -29.952,0 -43.7754,18.4322 -43.7754,39.7441 0,9.6 3.4567,23.8091 24.3847,36.2891 11.328,6.72 16.7032,10.3677 16.7032,18.4317 0,6.528 -4.991,11.5195 -16.127,11.5195 -7.488,0 -16.8968,-1.9202 -22.4648,-4.9922 l -3.8399,25.7285 c 4.608,2.496 14.9753,4.9922 26.1113,4.9922 27.264,0 45.5039,-16.1277 45.5039,-40.5117 0,-13.248 -5.9506,-26.8813 -23.8066,-36.8653 -14.592,-8.256 -17.2812,-11.9027 -17.2812,-17.4707 0,-5.952 4.8011,-11.1367 14.7851,-11.1367 7.488,0 13.0565,2.112 16.8965,4.416 l 4.2227,-25.5351 c -4.032,-2.304 -12.4805,-4.6094 -21.3125,-4.6094 z m -104.9688,0.5762 c -12.096,0 -23.4237,0.7681 -31.6797,2.4961 l 0,127.1054 c 6.528,0.96 15.5524,1.5352 25.1524,1.5352 24.576,0 38.2061,-5.1848 46.0781,-13.6328 6.144,-6.336 9.6015,-14.5918 9.6015,-25.3438 0,-13.056 -7.4888,-25.5351 -22.4648,-29.9511 l 0,-0.7676 c 12.864,-5.952 18.2402,-17.2812 18.2402,-28.0332 0,-9.024 -2.8792,-18.0474 -10.3671,-24.1914 -9.792,-8.064 -22.4646,-9.2168 -34.5606,-9.2168 z m -944.4551,0.5762 0,27.6484 22.4649,0 0,101.7598 29.7597,0 0,-101.7598 22.6563,0 0,-27.6484 -74.8809,0 z m 79.3379,0 28.416,82.1757 0,47.2325 29.7618,0 0,-48.3829 28.6074,-81.0253 -30.7207,0 -6.1446,29.5683 c -1.92,9.024 -3.4554,18.2397 -4.6074,27.2637 l -0.3828,0 c -1.536,-9.216 -3.4564,-18.6235 -5.5684,-26.6875 l -7.6796,-30.1445 -31.6817,0 z m 93.5625,0 0,129.4082 61.4395,0 0,-25.1524 -31.6797,0 0,-104.2558 -29.7598,0 z m 75.75,0 0,129.4082 61.4395,0 0,-25.7286 -31.6797,0 0,-29.1836 28.2226,0 0,-24.5761 -28.2226,0 0,-24.1914 29.5683,0 0,-25.7285 -59.3281,0 z m 100.8496,0 0,27.6484 22.4649,0 0,101.7598 29.7597,0 0,-101.7598 22.6563,0 0,-27.6484 -74.8809,0 z m 87.7754,0 0,129.4082 29.7598,0 0,-51.4551 21.8867,0 0,51.4551 29.7617,0 0,-129.4082 -29.7617,0 0,50.3046 -21.8867,0 0,-50.3046 -29.7598,0 z m 103.125,0 0,129.4082 29.7598,0 0,-129.4082 -29.7598,0 z m 151.8496,0 20.9297,129.4082 29.5664,0 6.9121,-33.4082 c 2.496,-11.904 4.6095,-26.4951 7.1055,-42.6231 l 0.3828,0 c 1.728,16.512 3.457,31.2951 5.377,42.6231 l 5.5664,33.4082 31.1054,0 21.6954,-129.4082 -28.9922,0 -4.4161,46.8476 c -1.344,14.976 -2.6872,28.8017 -4.0312,44.9297 l -0.3848,0 c -1.536,-16.512 -3.4563,-30.7217 -5.5683,-44.9297 l -7.1035,-46.8476 -23.8086,0 -8.0625,46.8476 c -2.496,14.976 -5.1855,29.1857 -7.1055,44.9297 l -0.3828,0 c -1.536,-15.744 -2.3045,-30.7217 -3.6485,-44.9297 l -4.2246,-46.8476 -30.9121,0 z m 141.4004,0 0,129.4082 61.4395,0 0,-25.7286 -31.6797,0 0,-29.1836 28.2226,0 0,-24.5761 -28.2226,0 0,-24.1914 29.5683,0 0,-25.7285 -59.3281,0 z m 255.75,0 0,129.4082 29.7598,0 0,-129.4082 -29.7598,0 z m 42.7246,0 0,27.6484 22.4649,0 0,101.7598 29.7597,0 0,-101.7598 22.6563,0 0,-27.6484 -74.8809,0 z m 87.7754,0 0,129.4082 61.4395,0 0,-25.7286 -31.6797,0 0,-29.1836 28.2226,0 0,-24.5761 -28.2226,0 0,-24.1914 29.5683,0 0,-25.7285 -59.3281,0 z m -271.414,21.3125 c 7.872,0 11.9043,6.5285 11.9043,14.9765 0,9.216 -5.3761,16.127 -13.2481,16.127 l -4.7988,0 0,-30.336 c 1.536,-0.576 3.6466,-0.7675 6.1426,-0.7675 z m -6.1426,52.9921 4.9902,0 c 8.256,0 15.5527,5.9525 15.5527,16.8965 0,11.52 -7.6801,16.7032 -15.7441,16.7032 -1.728,0 -3.2628,0 -4.7988,-0.3829 l 0,-33.2168 z"
    style="fill:#66a0cf"/>
  <path
    d="m 2431.9999,1070.848 c -6.72,-8.256 -13.824,-17.28 -18.816,-23.616 8.64,-9.024 15.36,-26.304 17.088,-45.12 l -24.768,0 c -0.384,10.368 -0.96,20.544 -4.8,27.264 -2.88,-3.072 -10.752,-14.592 -16.704,-23.232 l 0,-0.96 c 19.776,-13.24798 22.464,-23.99998 22.464,-35.32798 0,-17.28 -12.288,-29.952 -30.912,-29.952 -21.504,0 -34.944,14.784 -34.944,33.216 0,8.256 2.304,18.24 9.6,27.64798 l 0,0.384 c -12.48,7.296 -20.544,18.432 -20.544,34.752 0,21.12 14.4,36.48 37.248,36.48 11.136,0 21.12,-3.264 28.032,-8.448 1.728,2.496 3.264,4.608 4.992,6.912 l 32.064,0 z m -59.52,-20.16 c -9.408,0 -15.936,-8.256 -15.936,-18.624 0,-6.336 2.688,-11.136 5.376,-14.016 7.296,10.176 16.704,23.232 21.504,28.8 -2.688,2.304 -5.952,3.84 -10.944,3.84 z m 2.112,-91.58398 c 6.144,0 7.296,7.104 7.296,12.096 0,6.528 -2.112,12.48 -9.408,18.24 -4.032,-5.76 -5.952,-10.752 -5.952,-17.472 0,-7.104 2.88,-12.864 8.064,-12.864 z"
    style="fill:#f9f9f9"/>
</svg>
